<?xml version="1.0" encoding="utf-8"?>
<!-- Generator: Adobe Illustrator 16.0.0, SVG Export Plug-In . SVG Version: 6.00 Build 0)  -->
<!DOCTYPE svg PUBLIC "-//W3C//DTD SVG 1.1//EN" "http://www.w3.org/Graphics/SVG/1.1/DTD/svg11.dtd">
<svg version="1.1" id="Layer_1" xmlns="http://www.w3.org/2000/svg" xmlns:xlink="http://www.w3.org/1999/xlink" x="0px" y="0px"
	 width="830.723px" height="296.833px" viewBox="-18.833 153.167 830.723 296.833"
	 enable-background="new -18.833 153.167 830.723 296.833" xml:space="preserve">
<g transform="translate(0.000000,600.000000) scale(0.100000,-0.100000)">
	<path fill="#FFFFFF" d="M420,3480c-193.999-140-305-227.002-305-237.002c0-15.996,67.002-48.999,238.999-116.997l38.003-15
		l-36.001-65l-37.002-65.005l190-337.998c125-223.994,195-337.998,205-337.998c27.002,0,627.002,437.002,623.999,454.004
		c-2.998,11.992-156.997,85-261.997,123.994c-5,2.002,5,27.998,21.997,57.998l31.001,55l-120,225.005
		C787.002,3632.002,748.999,3700,737.002,3700C730,3698.999,587.998,3600,420,3480z M913.999,3292.998l157.002-292.002l-20-40
		c-12.002-21.992-25-41.992-30-45.996c-6.001-2.998-126.001,42.002-268.003,100.996C611.001,3073.999,488.999,3125,482.002,3127.002
		c-7.002,2.998-12.002,10.996-10,16.997c1.997,7.002,60.996,117.002,131.997,243.999c111.001,202.002,130,230,140,215
		C751.001,3592.998,827.002,3453.999,913.999,3292.998z M538.999,3373.999c-61.001-108.999-115-202.998-120-207.998
		c-6.997-8.003-216.001,70-222.998,82.998c-3.999,6.001,446.997,332.002,451.997,327.002
		C648.999,3573.999,600,3482.998,538.999,3373.999z M713.999,2977.998c148.999-60.996,273.003-112.998,275-113.994
		c2.002-2.002-57.998-112.002-133.999-244.004c-121.001-212.002-138.999-239.004-148.999-222.998
		c-12.002,17.002-288.999,510.996-315,560.996c-11.001,20-8.999,31.006,16.001,78.003c15,30,30,53.999,31.997,53.999
		C441.001,3090,563.999,3040,713.999,2977.998z M1146.001,2800c53.999-22.002,101.997-44.004,105-47.998
		c3.999-4.004-90-77.002-208.003-162.002c-230.996-165-248.999-177.002-240.996-164.004c2.998,5,50.996,90,107.998,189.004
		c108.999,190.996,128.999,225,133.999,225C1045,2840,1091.001,2822.002,1146.001,2800z"/>
	<path fill="#FFFFFF" d="M7709.003,3501.001c-48.008-48.999-34.004-142.002,25.996-168.999c70-32.002,142.002,7.998,152.002,85
		c5,38.999,2.002,45.996-30,77.998c-29.004,28.999-42.002,35-77.002,35C7747.001,3530,7732.001,3523.999,7709.003,3501.001z
		 M7829.003,3505c73.994-37.998,53.994-152.002-30-170c-86.006-18.999-144.004,92.002-80,156.001
		C7752.001,3522.998,7785.995,3527.998,7829.003,3505z"/>
	<path fill="#FFFFFF" d="M4340,3353.999c-95-35-174.004-106.997-217.002-198.999c-25-53.999-27.998-71.001-27.998-165
		c0-94.004,2.998-110.996,27.998-160.996c32.002-67.002,117.998-151.006,184.004-182.002c40-17.998,65.996-22.002,152.998-22.002
		c92.998,0,112.002,2.998,162.002,27.002c115.996,53.994,187.998,148.994,210,275.996c28.994,172.002-56.006,339.004-210,410
		C4549.003,3371.001,4410,3378.999,4340,3353.999z M4617.998,3285c65-35,106.006-81.001,141.006-155
		c33.994-72.998,35.996-200,3.994-270.996c-52.002-115-148.994-180-278.994-187.002c-117.002-6.006-172.002,13.994-250,92.002
		c-76.006,76.992-99.004,138.994-92.002,253.994C4150,3158.999,4235,3267.002,4370,3311.001c14.004,5,62.998,6.997,110,6.001
		C4552.001,3313.999,4572.998,3310,4617.998,3285z"/>
	<path fill="#FFFFFF" d="M7192.997,3352.002c-177.998-63.003-277.002-235-245-424.004c22.002-127.002,94.004-222.002,210-275.996
		c51.006-24.004,69.004-27.002,162.002-27.002c87.002,0.996,112.998,5,152.998,22.998c66.006,30,151.006,114.004,184.004,181.006
		c25,50,27.998,66.992,27.998,160.996c0,98.999-2.002,110-32.998,172.002c-37.002,75-104.004,142.998-179.004,177.998
		C7405.995,3372.998,7267.001,3377.998,7192.997,3352.002z M7465.995,3287.002c66.006-33.003,128.008-104.004,155-176.001
		c29.004-78.003,24.004-193.999-13.994-266.997c-34.004-67.002-114.004-138.008-177.998-159.004c-75-25-197.002-17.002-265,17.998
		c-248.008,127.002-222.002,505,42.998,603.003C7269.003,3328.999,7402.997,3320,7465.995,3287.002z"/>
	<path fill="#FFFFFF" d="M1966.001,3352.002C1952.998,3331.001,1690,2655.996,1690,2642.998c0-8.994,7.998-12.998,22.002-10.996
		c17.998,2.002,30,22.998,62.998,105.996L1815,2840l175-2.002l173.999-2.998L2205,2732.998
		C2238.999,2645,2247.998,2630,2267.998,2630c12.002,0,22.002,5,22.002,10c0,5.996-62.998,170-141.001,365
		c-115,290-143.999,355-158.999,355C1980,3360,1968.999,3357.002,1966.001,3352.002z M2065,3085
		c37.002-92.998,68.999-175.996,72.002-182.002c3.999-10-29.004-12.998-147.002-12.998c-141.001,0-152.002,0.996-146.001,17.998
		c35,102.002,143.003,359.004,148.003,354.004C1995,3257.998,2027.998,3178.999,2065,3085z"/>
	<path fill="#FFFFFF" d="M2605,3347.002c-2.998-6.001-3.999-170-2.998-362.002l2.998-350l202.998-2.998l203.003-2.002l-3.003,22.002
		c-2.998,22.998-3.999,22.998-180,25.996L2650,2680v155v155h165h165v25v25h-165h-165v135v135l172.998,2.002
		c170,2.998,172.002,2.998,175,25.996l3.003,22.002H2805C2657.002,3360,2607.998,3357.002,2605,3347.002z"/>
	<path fill="#FFFFFF" d="M3350,2995v-365h25h25v155v155.996l101.001-2.998l101.001-2.998l81.997-152.998
		c73.999-137.998,83.003-152.002,106.001-150c13.999,2.002,23.999,7.998,22.998,12.998c-0.996,5.996-37.998,77.002-82.998,159.004
		c-43.999,81.992-78.999,150-77.998,150.996c1.997,0.996,16.997,10,35,19.004C3760,3010.996,3805,3122.002,3781,3207.998
		c-15,53.003-63.999,110-116.001,133.003c-32.002,15-66.001,18.999-177.002,18.999H3350V2995z M3648.999,3295
		C3765,3236.001,3765,3070,3650,3012.998c-37.002-18.994-60-22.998-147.002-22.998H3400v160v160h110
		C3587.998,3310,3628.999,3306.001,3648.999,3295z"/>
	<path fill="#FFFFFF" d="M5170,2995v-365h185.996h185l-2.998,22.998c-2.998,22.002-5.996,22.002-160,25L5220,2680.996V3020v340h-25
		h-25V2995z"/>
	<path fill="#FFFFFF" d="M5870,2995v-365h25h25v365v365h-25h-25V2995z"/>
	<path fill="#FFFFFF" d="M6240,3335v-25h110h110v-340.996v-340l22.998,2.998L6505,2635l2.998,337.002l2.002,336.997l107.998,3.003
		c102.002,2.998,107.002,3.999,110,25.996l2.998,22.002h-245H6240V3335z"/>
</g>
<text transform="matrix(1 0 0 1 773.46 263.1421)" fill="#FFFFFF" font-family="'MyriadPro-Regular'" font-size="18">R</text>
</svg>
